<?xml version="1.0" standalone="no"?><!DOCTYPE svg PUBLIC "-//W3C//DTD SVG 1.1//EN" "http://www.w3.org/Graphics/SVG/1.1/DTD/svg11.dtd"><svg t="1523167956880" class="icon" style="" viewBox="0 0 1024 1024" version="1.1" xmlns="http://www.w3.org/2000/svg" p-id="8063" xmlns:xlink="http://www.w3.org/1999/xlink" width="32" height="32"><defs><style type="text/css"></style></defs><path d="M905.991306 283.750529l-22.87294-22.791076 0-51.319829-51.486628 0-22.87294-22.791076 0-51.326992-51.479465 0-22.881127-22.799262L734.398206 61.402465 213.876112 61.402465c-82.138742 0-148.72016 66.3655-148.72016 148.237159l0 592.950683c0 81.871659 66.582441 148.237159 148.72016 148.237159l594.881662 0c82.138742 0 148.72016-66.3655 148.72016-148.237159L957.477934 283.750529 905.991306 283.750529zM808.757774 802.590308 213.876112 802.590308 213.876112 209.639624l297.441343 0 0 296.475342 297.441343 0L808.758798 802.590308zM808.757774 357.876784 660.037614 357.876784 660.037614 209.639624l74.360592 0 0 74.110905 74.360592 0L808.758798 357.876784z" p-id="8064"></path></svg>